<svg width="68" height="69" viewBox="0 0 68 69" fill="none" xmlns="http://www.w3.org/2000/svg">
<g filter="url(#filter0_d_2001_4)">
<path d="M48.1623 27.2802H57V19.4438C57 17.9201 55.7558 16.6866 54.2188 16.6866H35.6834C35.1527 24.9765 28.1997 31.5612 19.7096 31.5612C16.4893 31.5612 13.5068 30.6179 11 28.9853V48.4674C11 51.5149 13.4885 54 16.5807 54H54.2188C55.7558 54 57 52.7665 57 51.2428V44.3497H48.1623C43.4232 44.3497 39.5624 40.5222 39.5624 35.824C39.5624 31.1077 43.4232 27.2802 48.1623 27.2802ZM52.8099 12.5326V9.75724C52.8099 8.2335 51.5656 7 50.0286 7H33.14C34.2379 8.65071 35.0247 10.5191 35.4272 12.5326H52.8099Z" fill="#00A28A"/>
</g>
<path d="M19.495 3C12.5918 3 7 8.62488 7 15.5506C7 22.4947 12.5918 28.1196 19.495 28.1196C26.3982 28.1196 31.99 22.4947 31.99 15.5506C31.9718 8.62488 26.38 3 19.495 3ZM59.3079 30.7763H49.8182C47.0132 30.7763 44.7364 33.0665 44.7364 35.8881C44.7364 38.7097 47.0132 41 49.8182 41H59.3079C59.6904 41 60 40.6885 60 40.3038V31.4542C60 31.0878 59.6904 30.7763 59.3079 30.7763ZM50.9839 37.9952C49.8364 37.9952 48.9075 37.0608 48.9075 35.9065C48.9075 34.7522 49.8364 33.8177 50.9839 33.8177C52.1314 33.8177 53.0604 34.7522 53.0604 35.9065C53.0604 37.0608 52.1314 37.9952 50.9839 37.9952Z" fill="#FF5400"/>
<path fill-rule="evenodd" clip-rule="evenodd" d="M14.025 15.9262L21.3063 5.42355C21.4013 5.27635 21.5777 5.19281 21.7602 5.22583C22.0024 5.2691 22.1632 5.50079 22.1193 5.74384L20.7468 13.221L24.3984 14.2288C24.4486 14.2418 24.4975 14.263 24.5423 14.2943C24.7442 14.434 24.7941 14.7116 24.6544 14.9136L17.3731 25.4163C17.2781 25.5635 17.1017 25.647 16.9192 25.614C16.677 25.5707 16.5162 25.339 16.5601 25.096L17.9326 17.6188L14.281 16.611C14.2308 16.598 14.182 16.5768 14.1371 16.5455C13.9352 16.4058 13.8853 16.1282 14.025 15.9262Z" fill="black"/>
<defs>
<filter id="filter0_d_2001_4" x="0.6" y="0.6" width="66.8" height="67.8" filterUnits="userSpaceOnUse" color-interpolation-filters="sRGB">
<feFlood flood-opacity="0" result="BackgroundImageFix"/>
<feColorMatrix in="SourceAlpha" type="matrix" values="0 0 0 0 0 0 0 0 0 0 0 0 0 0 0 0 0 0 127 0" result="hardAlpha"/>
<feOffset dy="4"/>
<feGaussianBlur stdDeviation="5.2"/>
<feComposite in2="hardAlpha" operator="out"/>
<feColorMatrix type="matrix" values="0 0 0 0 0 0 0 0 0 0 0 0 0 0 0 0 0 0 0.25 0"/>
<feBlend mode="normal" in2="BackgroundImageFix" result="effect1_dropShadow_2001_4"/>
<feBlend mode="normal" in="SourceGraphic" in2="effect1_dropShadow_2001_4" result="shape"/>
</filter>
</defs>
</svg>
